<?xml version="1.0" encoding="UTF-8" standalone="no"?>
<!-- Created with Inkscape (http://www.inkscape.org/) -->

<svg
   width="74.016258mm"
   height="74.016266mm"
   viewBox="0 0 74.016258 74.016266"
   version="1.1"
   id="svg1"
   xml:space="preserve"
   xmlns:inkscape="http://www.inkscape.org/namespaces/inkscape"
   xmlns:sodipodi="http://sodipodi.sourceforge.net/DTD/sodipodi-0.dtd"
   xmlns="http://www.w3.org/2000/svg"
   xmlns:svg="http://www.w3.org/2000/svg"><sodipodi:namedview
     id="namedview1"
     pagecolor="#505050"
     bordercolor="#eeeeee"
     borderopacity="1"
     inkscape:showpageshadow="0"
     inkscape:pageopacity="0"
     inkscape:pagecheckerboard="0"
     inkscape:deskcolor="#505050"
     inkscape:document-units="mm"><inkscape:page
       x="0"
       y="0"
       width="74.016258"
       height="74.016266"
       id="page2"
       margin="0"
       bleed="0" /></sodipodi:namedview><defs
     id="defs1" /><g
     inkscape:label="Layer 1"
     inkscape:groupmode="layer"
     id="layer1"
     transform="translate(-67.991868,-111.49186)"><rect
       style="fill:#ffffff;fill-opacity:1;stroke:none;stroke-width:0.499999;stroke-linecap:round;stroke-linejoin:round"
       id="rect1"
       width="74.016266"
       height="74.016266"
       x="67.991867"
       y="111.49187"
       ry="9.1883297" /><path
       style="fill:none;fill-opacity:1;stroke:#000000;stroke-width:3.94708;stroke-linecap:round;stroke-linejoin:round;stroke-dasharray:none;stroke-opacity:1"
       d="m 83.667254,168.46685 c 0,0 0.156816,5.44935 5.449356,5.44935 h 32.47 c 0,0 4.74614,-0.67382 4.74614,-5.4371"
       id="path1"
       sodipodi:nodetypes="cscc" /><path
       style="fill:none;fill-opacity:1;stroke:#000000;stroke-width:4.07864;stroke-linecap:round;stroke-linejoin:round;stroke-dasharray:none;stroke-opacity:1"
       d="M 92.668115,165.37385 H 117.33189"
       id="path2"
       sodipodi:nodetypes="cc" /><path
       id="path6"
       style="baseline-shift:baseline;display:inline;overflow:visible;opacity:1;vector-effect:none;stroke-width:1.31569;stroke-linecap:round;stroke-linejoin:round;enable-background:accumulate;stop-color:#000000;stop-opacity:1"
       d="m 105.1404,123.86814 a 2.039325,2.039325 0 0 0 -2.03972,2.03767 v 25.47055 l -9.53156,-9.5309 a 2.039325,2.039325 0 0 0 -2.885509,0 2.039325,2.039325 0 0 0 0,2.8862 l 13.014019,13.01131 a 2.039325,2.039325 0 0 0 0.002,0.002 2.039325,2.039325 0 0 0 0.2094,0.18221 2.039529,2.039529 0 0 0 0.0462,0.0307 2.039325,2.039325 0 0 0 0.18426,0.1196 2.039529,2.039529 0 0 0 0.0674,0.0333 2.039325,2.039325 0 0 0 0.18561,0.087 2.039529,2.039529 0 0 0 0.064,0.0217 2.039325,2.039325 0 0 0 0.19854,0.0612 2.039529,2.039529 0 0 0 0.0809,0.0157 2.039325,2.039325 0 0 0 0.21554,0.0326 2.039529,2.039529 0 0 0 0.053,0.004 2.039325,2.039325 0 0 0 0.27537,0 2.039325,2.039325 0 0 0 0.47865,-0.091 2.039325,2.039325 0 0 0 0.0605,-0.0204 2.039325,2.039325 0 0 0 0.20058,-0.0829 2.039325,2.039325 0 0 0 0.0217,-0.0105 2.039529,2.039529 0 0 0 0.0327,-0.0163 2.039325,2.039325 0 0 0 0.18833,-0.11013 2.039325,2.039325 0 0 0 0.049,-0.0327 2.039325,2.039325 0 0 0 0.17405,-0.13803 2.039325,2.039325 0 0 0 0.0414,-0.036 2.039325,2.039325 0 0 0 0.0564,-0.0496 l 12.73528,-12.73527 a 2.039325,2.039325 0 0 0 0,-2.88347 2.039325,2.039325 0 0 0 -1.44411,-0.59832 2.039325,2.039325 0 0 0 -1.4414,0.59832 l -9.25348,9.25347 V 125.9069 a 2.039325,2.039325 0 0 0 -2.03835,-2.03767 z" /></g></svg>
